Coordinates

Units are S.I. units (second, meters, Newtons, ...)
If the header above contains a line with 'inDegrees', this indicates whether rotational values are in degrees (yes) or radians (no).

inDegrees=no
nColumns=21
nRows=12
DataType=double
version=3
OpenSimVersion=4.6-2026-03-31-d6972f9e6
endheader
time	/jointset/ground_pelvis/pelvis_tilt/value	/jointset/ground_pelvis/pelvis_list/value	/jointset/ground_pelvis/pelvis_rotation/value	/jointset/ground_pelvis/pelvis_tx/value	/jointset/ground_pelvis/pelvis_ty/value	/jointset/ground_pelvis/pelvis_tz/value	/jointset/hip_r/hip_flexion_r/value	/jointset/hip_r/hip_adduction_r/value	/jointset/hip_r/hip_rotation_r/value	/jointset/walker_knee_r/knee_angle_r/value	/jointset/patellofemoral_r/knee_angle_r_beta/value	/jointset/ankle_r/ankle_angle_r/value	/jointset/subtalar_r/subtalar_angle_r/value	/jointset/hip_l/hip_flexion_l/value	/jointset/hip_l/hip_adduction_l/value	/jointset/hip_l/hip_rotation_l/value	/jointset/walker_knee_l/knee_angle_l/value	/jointset/patellofemoral_l/knee_angle_l_beta/value	/jointset/ankle_l/ankle_angle_l/value	/jointset/subtalar_l/subtalar_angle_l/value
147.496	-0.1557184279079695	0.01688862109393209	0.1432857838031975	0.6502752989071716	1.011374715899512	-0.2610836740514655	-0.1486462794608867	-0.01224016683789883	-0.04922743315124305	0.8496092677832318	0.8496092682189117	-0.5257687184825648	-0.3233796925314661	0.5722724371064517	0.01688770178676733	-0.02699616866083583	0.4422418885402236	0.4422418885868886	-0.06938448740148673	-0.009864597909584452
147.5	-0.1474292011687803	0.01745789369788183	0.1422994323000005	0.6503775418790418	1.00908080105618	-0.2614308032577004	-0.1467437419441537	-0.01518776301343752	-0.05247193999251138	0.8868942089164856	0.886894209378391	-0.5296038224087748	-0.3210714817269644	0.5638753097017511	0.01477363703317979	-0.02955089115451149	0.4636415814768717	0.4636415814679233	-0.04839882709769208	-0.01206897754032566
147.504	-0.1393100422921381	0.01882771822475834	0.1413659345968355	0.6504271549733933	1.006690345923716	-0.2617554718711211	-0.1441728363155135	-0.01934138912075907	-0.05612037815866321	0.9245779687631022	0.924577969256245	-0.5347092301572443	-0.31834337123126	0.5553914356729943	0.01348756728205147	-0.03250627508047584	0.4863802340270297	0.4863802339637394	-0.02589599745803568	-0.01498179129971655
147.508	-0.1314785453375081	0.02099458541814258	0.1404985536045345	0.6504172720685472	1.004211721341472	-0.2620563243821191	-0.1407982075348907	-0.02468029386442141	-0.06005652860832177	0.9625589519105789	0.9625589524368657	-0.5410400858538691	-0.3153515666189975	0.5468903386884366	0.01306511074401794	-0.03578502591972619	0.5101170947923591	0.5101170946754362	-0.002119513104206491	-0.01852188236860146
147.512	-0.1240458664057029	0.02394168007707053	0.1397020651754219	0.6503412247051642	1.001655592500983	-0.2623318209616358	-0.1364852023232049	-0.03116238004377329	-0.06414923695626075	1.000732702938262	1.000732703497857	-0.5484978396570396	-0.3122295256605678	0.5384396151977252	0.01352341104001193	-0.03930085900372901	0.5345148020127696	0.5345148018415002	0.0226584122062163	-0.02260840372088484
147.516	-0.1171130342475125	0.02763850372181205	0.1389725945283271	0.6501928537642223	0.9990349952464314	-0.2625802904719075	-0.1311046436689516	-0.03872351465192433	-0.06825577245332905	1.03899087120446	1.038990871797235	-0.5569347362079597	-0.309084572670256	0.5301013537524261	0.01485998738490871	-0.04296184058853173	0.5592451918906567	0.5592451916621524	0.04814611497092409	-0.02716160227843358
147.52	-0.1107675748491585	0.03204068750032655	0.1382976296330595	0.6499668007919709	0.9963653003814598	-0.2627999870596707	-0.1245373730433564	-0.04727724896029038	-0.07222550779270698	1.077220503437217	1.077220504063876	-0.5661601184272279	-0.3059958552053505	0.5219286417143019	0.01705196296844787	-0.04667397287178397	0.5839944604882622	0.5839944601969573	0.07404227678069286	-0.03210326921079225
147.524	-0.1050805540209186	0.03709010201295443	0.1376562574826246	0.6496587662407003	0.9936640721944577	-0.2629891535498673	-0.1166784811704978	-0.05671508246456843	-0.07590388716839644	1.115303658256123	1.115303658918831	-0.5759483148745178	-0.3030136716569281	0.5139622546033595	0.02005584445328318	-0.0503447432970118	0.6084674885966905	0.6084674882342762	0.1000457361998448	-0.03735713738601573
147.528	-0.100104170831133	0.04271534297734182	0.1370196588514031	0.6492657233413386	0.990950828042802	-0.2631460932045895	-0.1074411066813781	-0.06690737500087796	-0.07913662671704097	1.153117339808351	1.15311734051087	-0.5860477536109991	-0.3001601141750698	0.5062276936299739	0.02380797462423783	-0.05388642472928459	0.6323912351247455	0.632391234680757	0.1258648199640365	-0.04284942664343706
147.532	-0.0958701353657643	0.04883264034229768	0.1363518570335977	0.6487860776491614	0.9882466974763484	-0.2632692454876692	-0.09675954103632947	-0.07770499185257365	-0.08177403325891362	1.190533796359389	1.190533797106794	-0.5961908050728908	-0.2974308750626191	0.4987328932422045	0.02822570006464409	-0.05721906095712898	0.6555172319589292	0.6555172314220998	0.1512258159566823	-0.04850951378239397
147.536	-0.09238909399043971	0.05534723391954555	0.1356106953743125	0.6482197645471282	0.9855739762510947	-0.2633572582720227	-0.08459132867804761	-0.08894176818160311	-0.08367531460539336	1.227421254827648	1.227421255625794	-0.6061037672195744	-0.2947980336039154	0.4914669802995434	0.03320925570407268	-0.06027318455492302	0.6776233070293827	0.6776233063895957	0.1758803043843321	-0.05427057223589021
147.54	-0.08965118744304283	0.06215522289151732	0.1347490404867295	0.6475682806825567	0.9829555884381518	-0.2634090525738613	-0.07091825182208591	-0.1004378049579728	-0.08471277992881331	1.263645091037407	1.263645091892395	-0.6155164377659464	-0.2922136052418802	0.4844002623263431	0.03864434006733704	-0.06299223431753566	0.6985146493298526	0.6985146485802721	0.1996110829845592	-0.06007012246161229
